<svg width="261" height="80" viewBox="0 0 261 80" fill="none" xmlns="http://www.w3.org/2000/svg">
<g filter="url(#filter0_d_2554_763)">
<rect x="12" y="4" width="237" height="56" rx="28" fill="#fff"/>
<path d="M40 42C45.523 42 50 37.523 50 32C50 26.477 45.523 22 40 22C34.477 22 30 26.477 30 32C30 37.523 34.477 42 40 42ZM40 44C33.373 44 28 38.627 28 32C28 25.373 33.373 20 40 20C46.627 20 52 25.373 52 32C52 38.627 46.627 44 40 44Z" fill="#6B7280"/>
<path d="M38 37L44 32L38 27V37Z" fill="#6B7280"/>
<path d="M73.7533 34.64C73.7533 32.928 72.6493 32.064 70.6813 31.664L68.9853 31.328C67.9133 31.104 66.9693 30.72 66.9693 29.632C66.9693 28.64 67.7853 27.76 69.2733 27.76C70.7133 27.76 71.7053 28.72 71.8013 30.096H73.5933C73.4493 27.808 71.6413 26.352 69.2573 26.352C66.8733 26.352 65.1773 27.808 65.1773 29.744C65.1773 31.696 66.6493 32.512 68.2653 32.832L69.9293 33.152C71.2573 33.44 71.8813 33.92 71.8813 34.88C71.8813 36.064 70.7933 36.752 69.3373 36.752C67.5773 36.752 66.6493 35.808 66.5693 34.352H64.7773C64.9213 36.64 66.6013 38.16 69.3693 38.16C72.1533 38.16 73.7533 36.64 73.7533 34.64ZM79.3108 38.16C81.3108 38.16 82.7668 37.024 83.1828 35.136H81.5828C81.3108 36.24 80.4788 36.896 79.2788 36.896C77.8548 36.896 76.9908 35.888 76.8628 34.16H83.1828C83.4708 31.408 81.7908 29.36 79.2628 29.36C76.9268 29.36 75.2148 31.2 75.2148 33.712C75.2148 36.384 76.8628 38.16 79.3108 38.16ZM79.2308 30.576C80.5428 30.576 81.3908 31.52 81.4708 33.088H76.8788C77.0548 31.504 77.9348 30.576 79.2308 30.576ZM88.3927 38.16C90.3927 38.16 91.8487 37.024 92.2647 35.136H90.6647C90.3927 36.24 89.5607 36.896 88.3607 36.896C86.9367 36.896 86.0727 35.888 85.9447 34.16H92.2647C92.5527 31.408 90.8727 29.36 88.3447 29.36C86.0087 29.36 84.2967 31.2 84.2967 33.712C84.2967 36.384 85.9447 38.16 88.3927 38.16ZM88.3127 30.576C89.6247 30.576 90.4727 31.52 90.5527 33.088H85.9607C86.1367 31.504 87.0167 30.576 88.3127 30.576ZM99.6146 27.552C99.6146 26.928 99.1346 26.48 98.4466 26.48C97.7586 26.48 97.2626 26.928 97.2626 27.552C97.2626 28.16 97.7586 28.624 98.4466 28.624C99.1346 28.624 99.6146 28.16 99.6146 27.552ZM99.2626 38V29.52H97.6466V38H99.2626ZM106.45 36.432C106.114 36.592 105.778 36.656 105.394 36.656C104.53 36.656 103.97 36.24 103.97 35.072V30.896H106.53V29.52H103.97V27.008H102.354V29.52H100.482V30.896H102.354V35.44C102.354 37.312 103.442 38.16 105.01 38.16C105.522 38.16 105.954 38.08 106.45 37.856V36.432ZM113.704 27.552C113.704 26.928 113.224 26.48 112.536 26.48C111.848 26.48 111.352 26.928 111.352 27.552C111.352 28.16 111.848 28.624 112.536 28.624C113.224 28.624 113.704 28.16 113.704 27.552ZM113.352 38V29.52H111.736V38H113.352ZM117.371 33.216C117.371 31.712 118.299 30.784 119.403 30.784C120.603 30.784 121.243 31.6 121.243 33.056V38H122.859V32.512C122.859 30.48 121.707 29.36 119.963 29.36C118.795 29.36 117.835 29.984 117.259 30.928V29.52H115.755V38H117.371V33.216ZM133.805 38H135.149V32.56C135.149 30.544 133.933 29.36 131.837 29.36C129.853 29.36 128.493 30.624 128.413 32.528H129.885C129.933 31.344 130.653 30.64 131.837 30.64C132.957 30.64 133.613 31.328 133.613 32.544V33.168C132.925 33.088 132.525 33.072 132.029 33.072C129.501 33.072 128.173 33.936 128.173 35.6C128.173 37.152 129.325 38.16 131.085 38.16C132.333 38.16 133.277 37.632 133.805 36.688V38ZM129.709 35.552C129.709 34.56 130.509 34.08 132.125 34.08C132.541 34.08 132.989 34.096 133.613 34.176V34.864C133.613 36.16 132.765 37.008 131.405 37.008C130.365 37.008 129.709 36.432 129.709 35.552ZM140.814 38.176C142.942 38.176 144.446 36.8 144.734 34.56H143.054C142.862 35.936 142.03 36.736 140.83 36.736C139.438 36.736 138.526 35.568 138.526 33.76C138.526 31.968 139.438 30.784 140.83 30.784C142.014 30.784 142.862 31.6 143.038 32.96H144.734C144.43 30.752 142.91 29.36 140.814 29.36C138.526 29.36 136.862 31.2 136.862 33.76C136.862 36.352 138.494 38.176 140.814 38.176ZM151.304 36.432C150.968 36.592 150.632 36.656 150.248 36.656C149.384 36.656 148.824 36.24 148.824 35.072V30.896H151.384V29.52H148.824V27.008H147.208V29.52H145.336V30.896H147.208V35.44C147.208 37.312 148.296 38.16 149.864 38.16C150.376 38.16 150.808 38.08 151.304 37.856V36.432ZM155.055 27.552C155.055 26.928 154.575 26.48 153.887 26.48C153.199 26.48 152.703 26.928 152.703 27.552C152.703 28.16 153.199 28.624 153.887 28.624C154.575 28.624 155.055 28.16 155.055 27.552ZM154.703 38V29.52H153.087V38H154.703ZM160.658 38.16C163.058 38.16 164.818 36.272 164.818 33.76C164.818 31.248 163.058 29.36 160.658 29.36C158.258 29.36 156.498 31.248 156.498 33.76C156.498 36.272 158.258 38.16 160.658 38.16ZM160.658 36.736C159.266 36.736 158.178 35.616 158.178 33.76C158.178 31.904 159.266 30.8 160.658 30.8C162.05 30.8 163.154 31.904 163.154 33.76C163.154 35.616 162.05 36.736 160.658 36.736ZM168.241 33.216C168.241 31.712 169.169 30.784 170.273 30.784C171.473 30.784 172.113 31.6 172.113 33.056V38H173.729V32.512C173.729 30.48 172.577 29.36 170.833 29.36C169.665 29.36 168.705 29.984 168.129 30.928V29.52H166.625V38H168.241V33.216ZM183.155 41.088C181.827 39.088 181.187 36.448 181.187 33.792C181.187 31.152 181.827 28.512 183.155 26.512H181.555C180.243 28.512 179.523 31.152 179.523 33.792C179.523 36.448 180.243 39.088 181.555 41.088H183.155ZM191.356 36.56H186.796L188.972 34.096C190.748 32.208 191.212 31.344 191.212 30.112C191.212 28.336 189.74 27.024 187.724 27.024C185.58 27.024 184.076 28.464 184.076 30.464H185.66C185.66 29.264 186.46 28.48 187.66 28.48C188.764 28.48 189.516 29.232 189.516 30.304C189.516 31.28 189.02 32.032 187.74 33.424L184.364 37.072V38H191.356V36.56ZM198.463 38V33.136C198.463 31.712 199.343 30.784 200.463 30.784C201.647 30.784 202.271 31.616 202.271 33.024V38H203.887V33.136C203.887 31.712 204.783 30.784 205.887 30.784C207.071 30.784 207.695 31.616 207.695 33.024V38H209.311V32.512C209.311 30.496 208.191 29.36 206.447 29.36C205.151 29.36 204.175 30.032 203.583 31.12C203.199 30 202.255 29.36 201.007 29.36C199.839 29.36 198.927 29.952 198.351 30.928V29.52H196.847V38H198.463ZM213.6 27.552C213.6 26.928 213.12 26.48 212.432 26.48C211.744 26.48 211.248 26.928 211.248 27.552C211.248 28.16 211.744 28.624 212.432 28.624C213.12 28.624 213.6 28.16 213.6 27.552ZM213.248 38V29.52H211.632V38H213.248ZM217.268 33.216C217.268 31.712 218.196 30.784 219.3 30.784C220.5 30.784 221.14 31.6 221.14 33.056V38H222.756V32.512C222.756 30.48 221.604 29.36 219.86 29.36C218.692 29.36 217.732 29.984 217.156 30.928V29.52H215.652V38H217.268V33.216ZM225.766 41.088C227.078 39.088 227.798 36.448 227.798 33.792C227.798 31.152 227.078 28.512 225.766 26.512H224.166C225.494 28.512 226.15 31.152 226.15 33.792C226.15 36.448 225.494 39.088 224.166 41.088H225.766Z" fill="#111827"/>
</g>
<defs>
<filter id="filter0_d_2554_763" x="0" y="0" width="261" height="80" filterUnits="userSpaceOnUse" color-interpolation-filters="sRGB">
<feFlood flood-opacity="0" result="BackgroundImageFix"/>
<feColorMatrix in="SourceAlpha" type="matrix" values="0 0 0 0 0 0 0 0 0 0 0 0 0 0 0 0 0 0 127 0" result="hardAlpha"/>
<feMorphology radius="4" operator="erode" in="SourceAlpha" result="effect1_dropShadow_2554_763"/>
<feOffset dy="8"/>
<feGaussianBlur stdDeviation="8"/>
<feColorMatrix type="matrix" values="0 0 0 0 0.109804 0 0 0 0 0.172549 0 0 0 0 0.25098 0 0 0 0.08 0"/>
<feBlend mode="normal" in2="BackgroundImageFix" result="effect1_dropShadow_2554_763"/>
<feBlend mode="normal" in="SourceGraphic" in2="effect1_dropShadow_2554_763" result="shape"/>
</filter>
</defs>
</svg>
